<svg viewBox="0 0 18 18" data-islogo="true" role="presentation" focusable="false" xmlns:svg="http://www.w3.org/2000/svg" xmlns:xlink="http://www.w3.org/1999/xlink" aria-hidden="true">
    <g>
        <defs/>
        <path d="M.5 5.79h17v9.48a.57.57 0 0 1-.57.57H1.07a.57.57 0 0 1-.57-.57V5.79z" fill="#D4D4D4"/>
        <path d="M1.07 2.17h15.86a.57.57 0 0 1 .57.57v3.05H.5V2.73a.57.57 0 0 1 .57-.56z" fill="#37c2b1"/>
        <path d="M2.81 6.89h12.37a.27.27 0 0 1 .26.27v1.4a.27.27 0 0 1-.26.27H2.81a.27.27 0 0 1-.26-.27v-1.4a.27.27 0 0 1 .26-.27z" fill="#FFFFFF"/>
        <path d="M2.82 9.68h12.37a.27.27 0 0 1 .26.27v1.41a.27.27 0 0 1-.26.27H2.82a.27.27 0 0 1-.26-.27V10a.27.27 0 0 1 .26-.32z" fill="#37c2b1"/>
        <path d="M2.82 12.5h12.37a.27.27 0 0 1 .26.27v1.41a.27.27 0 0 1-.26.27H2.82a.27.27 0 0 1-.26-.27v-1.41a.27.27 0 0 1 .26-.27z" fill="#258277"/>
    </g>
</svg>
